<svg xmlns="http://www.w3.org/2000/svg" viewBox="0 0 900 620" role="img" aria-labelledby="t d">
  <title id="t">Visual record card for Cellini's Perseus with the Head of Medusa</title>
  <desc id="d">Project-created visual surrogate for the record of Cellini's Perseus with the Head of Medusa.</desc>
  <rect width="900" height="620" fill="#202326"/>
  <rect x="370" y="128" width="160" height="275" rx="72" fill="#c9b071"/>
  <circle cx="450" cy="107" r="68" fill="#d39a32"/>
  <path d="M360 198h-88M528 198h95M450 400v88M390 488h120" stroke="#d39a32" stroke-width="28" stroke-linecap="round" fill="none"/>
  <circle cx="639" cy="226" r="56" fill="#d8a7b8"/>
  <path d="M596 209c26-30 58-30 86 0M596 242c26 28 58 28 86 0" stroke="#672e4a" stroke-width="10" stroke-linecap="round" fill="none"/>
  <path d="M198 468c120-58 222-56 306 6 66 49 134 62 207 38" stroke="#d8a7b8" stroke-width="24" stroke-linecap="round" fill="none" opacity=".55"/>
  <rect x="60" y="500" width="780" height="72" fill="#f8f5ee"/>
  <text x="84" y="535" font-family="Georgia,serif" font-size="28" font-weight="700" fill="#282229">Cellini, Perseus with the Head of Medusa</text>
  <text x="84" y="560" font-family="Arial,sans-serif" font-size="17" fill="#672e4a">Bronze, 1545-1554. Visual surrogate; see artwork record.</text>
</svg>
