<svg xmlns="http://www.w3.org/2000/svg" viewBox="0 0 1200 680" role="img" aria-label="Theoretical Model: WHO / WHAT / WHERE / WHEN">
<style>text{font-family:Arial,sans-serif;fill:#28232a}.title{font:700 28px Georgia,serif}.label{font-size:13px}.edge{font-size:11px;fill:#655a63}.node{stroke:#584652;stroke-width:1.5}</style>
<rect width="100%" height="100%" fill="#f8f5ee"/><text x="40" y="48" class="title">Theoretical Model: WHO / WHAT / WHERE / WHEN</text>
<line x1="125" y1="130" x2="365" y2="130" stroke="#8a7a84" stroke-width="1.5"/>
<text x="245.0" y="125.0" text-anchor="middle" class="edge">organizes</text>
<line x1="125" y1="300" x2="365" y2="300" stroke="#8a7a84" stroke-width="1.5"/>
<text x="245.0" y="295.0" text-anchor="middle" class="edge">organizes</text>
<line x1="125" y1="470" x2="365" y2="470" stroke="#8a7a84" stroke-width="1.5"/>
<text x="245.0" y="465.0" text-anchor="middle" class="edge">organizes</text>
<line x1="125" y1="610" x2="365" y2="610" stroke="#8a7a84" stroke-width="1.5"/>
<text x="245.0" y="605.0" text-anchor="middle" class="edge">organizes</text>
<line x1="365" y1="130" x2="600" y2="320" stroke="#8a7a84" stroke-width="1.5"/>
<text x="482.5" y="220.0" text-anchor="middle" class="edge">acts around</text>
<line x1="365" y1="300" x2="600" y2="320" stroke="#8a7a84" stroke-width="1.5"/>
<text x="482.5" y="305.0" text-anchor="middle" class="edge">transform</text>
<line x1="365" y1="470" x2="600" y2="320" stroke="#8a7a84" stroke-width="1.5"/>
<text x="482.5" y="390.0" text-anchor="middle" class="edge">contextualize</text>
<line x1="365" y1="610" x2="600" y2="320" stroke="#8a7a84" stroke-width="1.5"/>
<text x="482.5" y="460.0" text-anchor="middle" class="edge">situate</text>
<line x1="600" y1="320" x2="850" y2="150" stroke="#8a7a84" stroke-width="1.5"/>
<text x="725.0" y="230.0" text-anchor="middle" class="edge">represented in</text>
<line x1="600" y1="320" x2="850" y2="300" stroke="#8a7a84" stroke-width="1.5"/>
<text x="725.0" y="305.0" text-anchor="middle" class="edge">depicted in</text>
<line x1="600" y1="320" x2="850" y2="450" stroke="#8a7a84" stroke-width="1.5"/>
<text x="725.0" y="380.0" text-anchor="middle" class="edge">symbolized by</text>
<line x1="850" y1="150" x2="850" y2="595" stroke="#8a7a84" stroke-width="1.5"/>
<text x="850.0" y="367.5" text-anchor="middle" class="edge">informs</text>
<line x1="850" y1="300" x2="850" y2="595" stroke="#8a7a84" stroke-width="1.5"/>
<text x="850.0" y="442.5" text-anchor="middle" class="edge">informs</text>
<line x1="850" y1="450" x2="850" y2="595" stroke="#8a7a84" stroke-width="1.5"/>
<text x="850.0" y="517.5" text-anchor="middle" class="edge">informs</text>
<rect x="522" y="292" width="156" height="56" rx="14" fill="#d8a7b8" class="node"/>
<text x="600" y="325" text-anchor="middle" class="label">Medusa</text>
<rect x="47" y="102" width="156" height="56" rx="14" fill="#ead9df" class="node"/>
<text x="125" y="135" text-anchor="middle" class="label">WHO</text>
<rect x="47" y="272" width="156" height="56" rx="14" fill="#ead9df" class="node"/>
<text x="125" y="305" text-anchor="middle" class="label">WHAT</text>
<rect x="47" y="442" width="156" height="56" rx="14" fill="#ead9df" class="node"/>
<text x="125" y="475" text-anchor="middle" class="label">WHERE</text>
<rect x="47" y="582" width="156" height="56" rx="14" fill="#ead9df" class="node"/>
<text x="125" y="615" text-anchor="middle" class="label">WHEN</text>
<rect x="287" y="102" width="156" height="56" rx="14" fill="#bfd3ec" class="node"/>
<text x="365" y="135" text-anchor="middle" class="label">Characters &amp; creators</text>
<rect x="287" y="272" width="156" height="56" rx="14" fill="#efc777" class="node"/>
<text x="365" y="305" text-anchor="middle" class="label">Events, texts &amp; art</text>
<rect x="287" y="442" width="156" height="56" rx="14" fill="#c9c4dc" class="node"/>
<text x="365" y="475" text-anchor="middle" class="label">Greece, Libya &amp; museums</text>
<rect x="287" y="582" width="156" height="56" rx="14" fill="#e8d9aa" class="node"/>
<text x="365" y="615" text-anchor="middle" class="label">Antiquity to Baroque</text>
<rect x="772" y="122" width="156" height="56" rx="14" fill="#9ec6c2" class="node"/>
<text x="850" y="155" text-anchor="middle" class="label">Ovid&#x27;s Metamorphoses</text>
<rect x="772" y="272" width="156" height="56" rx="14" fill="#9ec6c2" class="node"/>
<text x="850" y="305" text-anchor="middle" class="label">Selected artworks</text>
<rect x="772" y="422" width="156" height="56" rx="14" fill="#e8d9aa" class="node"/>
<text x="850" y="455" text-anchor="middle" class="label">Gorgoneion</text>
<rect x="772" y="567" width="156" height="56" rx="14" fill="#d8a7b8" class="node"/>
<text x="850" y="600" text-anchor="middle" class="label">Changing representation</text>
</svg>