<svg xmlns="http://www.w3.org/2000/svg" viewBox="0 0 1200 600" role="img" aria-label="Graffoo-Compatible Conceptual Model">
<style>text{font-family:Arial,sans-serif;fill:#28232a}.title{font:700 28px Georgia,serif}.label{font-size:13px}.edge{font-size:11px;fill:#655a63}.node{stroke:#584652;stroke-width:1.5}</style>
<rect width="100%" height="100%" fill="#f8f5ee"/><text x="40" y="48" class="title">Graffoo-Compatible Conceptual Model</text>
<line x1="475" y1="150" x2="160" y2="150" stroke="#8a7a84" stroke-width="1.5"/>
<text x="317.5" y="145.0" text-anchor="middle" class="edge">P31 has modified</text>
<line x1="475" y1="150" x2="160" y2="300" stroke="#8a7a84" stroke-width="1.5"/>
<text x="317.5" y="220.0" text-anchor="middle" class="edge">P14 carried out by</text>
<line x1="475" y1="300" x2="160" y2="300" stroke="#8a7a84" stroke-width="1.5"/>
<text x="317.5" y="295.0" text-anchor="middle" class="edge">P14 carried out by</text>
<line x1="475" y1="300" x2="800" y2="225" stroke="#8a7a84" stroke-width="1.5"/>
<text x="637.5" y="257.5" text-anchor="middle" class="edge">P108 has produced</text>
<line x1="475" y1="300" x2="1050" y2="130" stroke="#8a7a84" stroke-width="1.5"/>
<text x="762.5" y="210.0" text-anchor="middle" class="edge">P7 took place at</text>
<line x1="475" y1="300" x2="1050" y2="300" stroke="#8a7a84" stroke-width="1.5"/>
<text x="762.5" y="295.0" text-anchor="middle" class="edge">P4 has time-span</text>
<line x1="800" y1="225" x2="160" y2="150" stroke="#8a7a84" stroke-width="1.5"/>
<text x="480.0" y="182.5" text-anchor="middle" class="edge">P62 depicts</text>
<line x1="800" y1="225" x2="475" y2="150" stroke="#8a7a84" stroke-width="1.5"/>
<text x="637.5" y="182.5" text-anchor="middle" class="edge">P62 depicts</text>
<line x1="800" y1="225" x2="1050" y2="130" stroke="#8a7a84" stroke-width="1.5"/>
<text x="925.0" y="172.5" text-anchor="middle" class="edge">P55 current location</text>
<line x1="800" y1="225" x2="1050" y2="470" stroke="#8a7a84" stroke-width="1.5"/>
<text x="925.0" y="342.5" text-anchor="middle" class="edge">P2 has type</text>
<line x1="800" y1="410" x2="160" y2="150" stroke="#8a7a84" stroke-width="1.5"/>
<text x="480.0" y="275.0" text-anchor="middle" class="edge">P67 refers to</text>
<line x1="800" y1="410" x2="475" y2="150" stroke="#8a7a84" stroke-width="1.5"/>
<text x="637.5" y="275.0" text-anchor="middle" class="edge">P67 refers to</text>
<line x1="800" y1="410" x2="160" y2="300" stroke="#8a7a84" stroke-width="1.5"/>
<text x="480.0" y="350.0" text-anchor="middle" class="edge">dcterms:creator</text>
<rect x="82" y="122" width="156" height="56" rx="14" fill="#fff2a8" class="node"/>
<text x="160" y="155" text-anchor="middle" class="label">frbroo:F38 Character</text>
<rect x="82" y="272" width="156" height="56" rx="14" fill="#fff2a8" class="node"/>
<text x="160" y="305" text-anchor="middle" class="label">crm:E21 Person</text>
<rect x="397" y="122" width="156" height="56" rx="14" fill="#fff2a8" class="node"/>
<text x="475" y="155" text-anchor="middle" class="label">crm:E5 Event</text>
<rect x="397" y="272" width="156" height="56" rx="14" fill="#fff2a8" class="node"/>
<text x="475" y="305" text-anchor="middle" class="label">crm:E12 Production</text>
<rect x="722" y="197" width="156" height="56" rx="14" fill="#fff2a8" class="node"/>
<text x="800" y="230" text-anchor="middle" class="label">crm:E22 Human-Made Object</text>
<rect x="722" y="382" width="156" height="56" rx="14" fill="#fff2a8" class="node"/>
<text x="800" y="415" text-anchor="middle" class="label">frbroo:F1 Work</text>
<rect x="972" y="102" width="156" height="56" rx="14" fill="#fff2a8" class="node"/>
<text x="1050" y="135" text-anchor="middle" class="label">crm:E53 Place</text>
<rect x="972" y="272" width="156" height="56" rx="14" fill="#fff2a8" class="node"/>
<text x="1050" y="305" text-anchor="middle" class="label">crm:E52 Time-Span</text>
<rect x="972" y="442" width="156" height="56" rx="14" fill="#fff2a8" class="node"/>
<text x="1050" y="475" text-anchor="middle" class="label">skos:Concept</text>
</svg>